<mxfile host="app.diagrams.net" modified="2022-10-08T12:54:33.107Z" agent="5.0 (Windows NT 10.0; Win64; x64) AppleWebKit/537.36 (KHTML, like Gecko) Chrome/105.0.0.0 Safari/537.36" etag="aHcBN8PB1rbFJ4yaW1Rb" version="20.1.1" type="github">
  <diagram id="64sL20sVKEMzImHlBKcd" name="第 1 页">
    <mxGraphModel dx="865" dy="490" grid="0" gridSize="10" guides="1" tooltips="1" connect="1" arrows="1" fold="1" page="1" pageScale="1" pageWidth="827" pageHeight="1169" math="0" shadow="0">
      <root>
        <mxCell id="0" />
        <mxCell id="1" parent="0" />
        <mxCell id="n3pyETa5GkpWAGw-3gH3-2" value="" style="rounded=0;whiteSpace=wrap;html=1;" vertex="1" parent="1">
          <mxGeometry x="210" y="130" width="220" height="150" as="geometry" />
        </mxCell>
        <mxCell id="n3pyETa5GkpWAGw-3gH3-10" value="" style="edgeStyle=orthogonalEdgeStyle;rounded=0;orthogonalLoop=1;jettySize=auto;html=1;startArrow=classic;startFill=1;entryX=0.5;entryY=0;entryDx=0;entryDy=0;" edge="1" parent="1" source="n3pyETa5GkpWAGw-3gH3-4" target="n3pyETa5GkpWAGw-3gH3-6">
          <mxGeometry relative="1" as="geometry">
            <mxPoint x="265" y="230" as="targetPoint" />
          </mxGeometry>
        </mxCell>
        <mxCell id="n3pyETa5GkpWAGw-3gH3-22" value="" style="edgeStyle=orthogonalEdgeStyle;rounded=0;orthogonalLoop=1;jettySize=auto;html=1;startArrow=classic;startFill=1;" edge="1" parent="1" source="n3pyETa5GkpWAGw-3gH3-4" target="n3pyETa5GkpWAGw-3gH3-14">
          <mxGeometry relative="1" as="geometry" />
        </mxCell>
        <mxCell id="n3pyETa5GkpWAGw-3gH3-4" value="GD32F207" style="rounded=0;whiteSpace=wrap;html=1;" vertex="1" parent="1">
          <mxGeometry x="344" y="130" width="70" height="40" as="geometry" />
        </mxCell>
        <mxCell id="n3pyETa5GkpWAGw-3gH3-6" value="GW2A-LV18" style="rounded=0;whiteSpace=wrap;html=1;" vertex="1" parent="1">
          <mxGeometry x="344" y="240" width="70" height="40" as="geometry" />
        </mxCell>
        <mxCell id="n3pyETa5GkpWAGw-3gH3-11" value="内部总线" style="text;html=1;strokeColor=none;fillColor=none;align=center;verticalAlign=middle;whiteSpace=wrap;rounded=0;" vertex="1" parent="1">
          <mxGeometry x="349" y="190" width="60" height="30" as="geometry" />
        </mxCell>
        <mxCell id="n3pyETa5GkpWAGw-3gH3-28" value="" style="edgeStyle=orthogonalEdgeStyle;rounded=0;orthogonalLoop=1;jettySize=auto;html=1;startArrow=classic;startFill=1;" edge="1" parent="1" source="n3pyETa5GkpWAGw-3gH3-14" target="n3pyETa5GkpWAGw-3gH3-21">
          <mxGeometry relative="1" as="geometry">
            <Array as="points">
              <mxPoint x="300" y="70" />
              <mxPoint x="300" y="70" />
            </Array>
          </mxGeometry>
        </mxCell>
        <mxCell id="n3pyETa5GkpWAGw-3gH3-14" value="淘晶驰串口屏" style="rounded=0;whiteSpace=wrap;html=1;" vertex="1" parent="1">
          <mxGeometry x="344" y="50" width="70" height="40" as="geometry" />
        </mxCell>
        <mxCell id="n3pyETa5GkpWAGw-3gH3-21" value="操作员" style="shape=umlActor;verticalLabelPosition=bottom;verticalAlign=top;html=1;outlineConnect=0;" vertex="1" parent="1">
          <mxGeometry x="255" y="50" width="30" height="60" as="geometry" />
        </mxCell>
        <mxCell id="n3pyETa5GkpWAGw-3gH3-29" value="串口" style="text;html=1;strokeColor=none;fillColor=none;align=center;verticalAlign=middle;whiteSpace=wrap;rounded=0;" vertex="1" parent="1">
          <mxGeometry x="349" y="90" width="60" height="30" as="geometry" />
        </mxCell>
        <mxCell id="n3pyETa5GkpWAGw-3gH3-31" value="" style="sketch=0;outlineConnect=0;fontColor=#232F3E;gradientColor=none;fillColor=default;strokeColor=none;dashed=0;verticalLabelPosition=bottom;verticalAlign=top;align=center;html=1;fontSize=12;fontStyle=0;aspect=fixed;pointerEvents=1;shape=mxgraph.aws4.iot_analytics_pipeline;fillStyle=cross-hatch;" vertex="1" parent="1">
          <mxGeometry x="477.86" y="290" width="150" height="80.77" as="geometry" />
        </mxCell>
        <mxCell id="n3pyETa5GkpWAGw-3gH3-32" value="" style="sketch=0;outlineConnect=0;fontColor=#232F3E;gradientColor=none;fillColor=#000000;strokeColor=none;dashed=0;verticalLabelPosition=bottom;verticalAlign=top;align=center;html=1;fontSize=12;fontStyle=0;aspect=fixed;pointerEvents=1;shape=mxgraph.aws4.iot_analytics_pipeline;fillStyle=solid;strokeWidth=1;" vertex="1" parent="1">
          <mxGeometry x="469.99" y="280" width="133.71" height="72" as="geometry" />
        </mxCell>
        <mxCell id="n3pyETa5GkpWAGw-3gH3-33" value="" style="shape=image;html=1;verticalAlign=top;verticalLabelPosition=bottom;labelBackgroundColor=#ffffff;imageAspect=0;aspect=fixed;image=https://cdn1.iconfinder.com/data/icons/software-engineering-and-video-gaming/512/488_Cutting_engineering_fabrication_laser_steel_Data_Science_Fabrication_Lab-128.png;fillStyle=solid;strokeColor=default;strokeWidth=1;fillColor=#000000;rotation=-15;" vertex="1" parent="1">
          <mxGeometry x="496.85" y="240" width="80" height="80" as="geometry" />
        </mxCell>
        <mxCell id="n3pyETa5GkpWAGw-3gH3-37" value="" style="endArrow=classic;html=1;rounded=0;" edge="1" parent="1">
          <mxGeometry width="50" height="50" relative="1" as="geometry">
            <mxPoint x="414" y="260" as="sourcePoint" />
            <mxPoint x="510" y="260" as="targetPoint" />
            <Array as="points">
              <mxPoint x="510" y="260" />
            </Array>
          </mxGeometry>
        </mxCell>
        <mxCell id="n3pyETa5GkpWAGw-3gH3-45" value="XY2-100协议" style="text;html=1;strokeColor=none;fillColor=none;align=center;verticalAlign=middle;whiteSpace=wrap;rounded=0;fillStyle=solid;" vertex="1" parent="1">
          <mxGeometry x="430" y="237" width="77" height="30" as="geometry" />
        </mxCell>
        <mxCell id="n3pyETa5GkpWAGw-3gH3-46" value="" style="endArrow=classic;html=1;rounded=0;" edge="1" parent="1" source="n3pyETa5GkpWAGw-3gH3-32">
          <mxGeometry width="50" height="50" relative="1" as="geometry">
            <mxPoint x="324" y="330" as="sourcePoint" />
            <mxPoint x="374" y="280" as="targetPoint" />
            <Array as="points">
              <mxPoint x="374" y="316" />
            </Array>
          </mxGeometry>
        </mxCell>
        <mxCell id="n3pyETa5GkpWAGw-3gH3-47" value="得到流水线的实时速度" style="text;html=1;strokeColor=none;fillColor=none;align=center;verticalAlign=middle;whiteSpace=wrap;rounded=0;fillStyle=solid;" vertex="1" parent="1">
          <mxGeometry x="386" y="313.88" width="77" height="33" as="geometry" />
        </mxCell>
        <mxCell id="n3pyETa5GkpWAGw-3gH3-49" value="嵌入式打标控制系统" style="rounded=1;whiteSpace=wrap;html=1;fillStyle=auto;strokeColor=default;strokeWidth=1;fillColor=#FFFFFF;" vertex="1" parent="1">
          <mxGeometry x="219" y="175" width="120" height="60" as="geometry" />
        </mxCell>
        <mxCell id="n3pyETa5GkpWAGw-3gH3-94" value="" style="edgeStyle=orthogonalEdgeStyle;curved=1;rounded=0;orthogonalLoop=1;jettySize=auto;html=1;startArrow=classic;startFill=1;endArrow=block;endFill=0;startSize=2;endSize=2;sourcePerimeterSpacing=0;fillColor=none;entryX=1;entryY=0.75;entryDx=0;entryDy=0;" edge="1" parent="1" source="n3pyETa5GkpWAGw-3gH3-50" target="n3pyETa5GkpWAGw-3gH3-84">
          <mxGeometry relative="1" as="geometry" />
        </mxCell>
        <mxCell id="n3pyETa5GkpWAGw-3gH3-50" value="MCU&lt;br&gt;GD32F207" style="rounded=0;whiteSpace=wrap;html=1;fillStyle=auto;strokeColor=#d6b656;strokeWidth=1;fillColor=#fff2cc;" vertex="1" parent="1">
          <mxGeometry x="173" y="529" width="83" height="67" as="geometry" />
        </mxCell>
        <mxCell id="n3pyETa5GkpWAGw-3gH3-62" value="TCJ触摸屏" style="rounded=0;whiteSpace=wrap;html=1;fillStyle=auto;strokeColor=#d6b656;strokeWidth=1;fillColor=#fff2cc;" vertex="1" parent="1">
          <mxGeometry x="173" y="386" width="83" height="67" as="geometry" />
        </mxCell>
        <mxCell id="n3pyETa5GkpWAGw-3gH3-64" value="FPGA&lt;br&gt;GW2A-LV18" style="rounded=0;whiteSpace=wrap;html=1;fillStyle=auto;strokeColor=#d6b656;strokeWidth=1;fillColor=#fff2cc;" vertex="1" parent="1">
          <mxGeometry x="319.85" y="531" width="83" height="67" as="geometry" />
        </mxCell>
        <mxCell id="n3pyETa5GkpWAGw-3gH3-66" value="" style="edgeStyle=orthogonalEdgeStyle;shape=flexArrow;rounded=0;orthogonalLoop=1;jettySize=auto;html=1;startArrow=classic;startFill=1;width=4.827586206896552;endSize=6.951724137931035;exitX=0;exitY=0.5;exitDx=0;exitDy=0;" edge="1" parent="1" source="n3pyETa5GkpWAGw-3gH3-64">
          <mxGeometry relative="1" as="geometry">
            <mxPoint x="294" y="592" as="sourcePoint" />
            <mxPoint x="258" y="564" as="targetPoint" />
          </mxGeometry>
        </mxCell>
        <mxCell id="n3pyETa5GkpWAGw-3gH3-71" value="" style="edgeStyle=orthogonalEdgeStyle;rounded=0;orthogonalLoop=1;jettySize=auto;html=1;startArrow=classic;startFill=1;verticalAlign=top;horizontal=1;endArrow=none;endFill=0;" edge="1" parent="1" source="n3pyETa5GkpWAGw-3gH3-67" target="n3pyETa5GkpWAGw-3gH3-64">
          <mxGeometry relative="1" as="geometry" />
        </mxCell>
        <mxCell id="n3pyETa5GkpWAGw-3gH3-67" value="正交编码器接口" style="rounded=0;whiteSpace=wrap;html=1;fillStyle=auto;strokeColor=#82b366;strokeWidth=1;fillColor=#d5e8d4;" vertex="1" parent="1">
          <mxGeometry x="461.85" y="490.75" width="115" height="28.5" as="geometry" />
        </mxCell>
        <mxCell id="n3pyETa5GkpWAGw-3gH3-75" value="" style="edgeStyle=orthogonalEdgeStyle;rounded=0;orthogonalLoop=1;jettySize=auto;html=1;startArrow=classic;startFill=1;endArrow=none;endFill=0;" edge="1" parent="1" source="n3pyETa5GkpWAGw-3gH3-68" target="n3pyETa5GkpWAGw-3gH3-64">
          <mxGeometry relative="1" as="geometry">
            <Array as="points">
              <mxPoint x="426.85" y="545" />
              <mxPoint x="426.85" y="545" />
            </Array>
          </mxGeometry>
        </mxCell>
        <mxCell id="n3pyETa5GkpWAGw-3gH3-68" value="XY2-100振镜接口" style="rounded=0;whiteSpace=wrap;html=1;fillStyle=auto;strokeColor=#82b366;strokeWidth=1;fillColor=#d5e8d4;" vertex="1" parent="1">
          <mxGeometry x="461.85" y="528.75" width="115" height="28.5" as="geometry" />
        </mxCell>
        <mxCell id="n3pyETa5GkpWAGw-3gH3-76" value="" style="edgeStyle=orthogonalEdgeStyle;rounded=0;orthogonalLoop=1;jettySize=auto;html=1;startArrow=classic;startFill=1;endArrow=none;endFill=0;" edge="1" parent="1" source="n3pyETa5GkpWAGw-3gH3-69" target="n3pyETa5GkpWAGw-3gH3-64">
          <mxGeometry relative="1" as="geometry">
            <Array as="points">
              <mxPoint x="422.85" y="584" />
              <mxPoint x="422.85" y="584" />
            </Array>
          </mxGeometry>
        </mxCell>
        <mxCell id="n3pyETa5GkpWAGw-3gH3-69" value="激光接口 &lt;br&gt;CO2，YAG，Fiber" style="rounded=0;whiteSpace=wrap;html=1;fillStyle=auto;strokeColor=#82b366;strokeWidth=1;fillColor=#d5e8d4;" vertex="1" parent="1">
          <mxGeometry x="461.85" y="567.75" width="115" height="28.5" as="geometry" />
        </mxCell>
        <mxCell id="n3pyETa5GkpWAGw-3gH3-77" value="" style="edgeStyle=orthogonalEdgeStyle;rounded=0;orthogonalLoop=1;jettySize=auto;html=1;startArrow=classic;startFill=1;endArrow=none;endFill=0;" edge="1" parent="1" source="n3pyETa5GkpWAGw-3gH3-70" target="n3pyETa5GkpWAGw-3gH3-64">
          <mxGeometry relative="1" as="geometry" />
        </mxCell>
        <mxCell id="n3pyETa5GkpWAGw-3gH3-70" value="8路独立输入、输出" style="rounded=0;whiteSpace=wrap;html=1;fillStyle=auto;strokeColor=#82b366;strokeWidth=1;fillColor=#d5e8d4;" vertex="1" parent="1">
          <mxGeometry x="461.85" y="605.75" width="115" height="28.5" as="geometry" />
        </mxCell>
        <mxCell id="n3pyETa5GkpWAGw-3gH3-104" value="" style="edgeStyle=orthogonalEdgeStyle;curved=1;rounded=0;orthogonalLoop=1;jettySize=auto;html=1;startArrow=classic;startFill=1;endArrow=block;endFill=0;startSize=2;endSize=2;sourcePerimeterSpacing=0;fillColor=none;entryX=0;entryY=0.5;entryDx=0;entryDy=0;" edge="1" parent="1" source="n3pyETa5GkpWAGw-3gH3-78" target="n3pyETa5GkpWAGw-3gH3-50">
          <mxGeometry relative="1" as="geometry">
            <Array as="points">
              <mxPoint x="163" y="464" />
              <mxPoint x="163" y="563" />
            </Array>
          </mxGeometry>
        </mxCell>
        <mxCell id="n3pyETa5GkpWAGw-3gH3-78" value="USB接口" style="rounded=0;whiteSpace=wrap;html=1;fillStyle=auto;strokeColor=#82b366;strokeWidth=1;fillColor=#d5e8d4;" vertex="1" parent="1">
          <mxGeometry x="33" y="452.69" width="81" height="23" as="geometry" />
        </mxCell>
        <mxCell id="n3pyETa5GkpWAGw-3gH3-82" value="" style="edgeStyle=orthogonalEdgeStyle;shape=flexArrow;rounded=0;orthogonalLoop=1;jettySize=auto;html=1;startArrow=classic;startFill=1;endArrow=block;endFill=0;fillColor=none;startSize=2;sourcePerimeterSpacing=0;width=3;endSize=2;" edge="1" parent="1" source="n3pyETa5GkpWAGw-3gH3-79" target="n3pyETa5GkpWAGw-3gH3-62">
          <mxGeometry relative="1" as="geometry" />
        </mxCell>
        <mxCell id="n3pyETa5GkpWAGw-3gH3-83" value="" style="edgeStyle=orthogonalEdgeStyle;shape=flexArrow;rounded=0;orthogonalLoop=1;jettySize=auto;html=1;startArrow=classic;startFill=1;endArrow=block;endFill=0;startSize=2;endSize=2;sourcePerimeterSpacing=0;fillColor=none;width=3;" edge="1" parent="1" source="n3pyETa5GkpWAGw-3gH3-79" target="n3pyETa5GkpWAGw-3gH3-50">
          <mxGeometry relative="1" as="geometry" />
        </mxCell>
        <mxCell id="n3pyETa5GkpWAGw-3gH3-79" value="串口1" style="rounded=0;whiteSpace=wrap;html=1;fillStyle=auto;strokeColor=#82b366;strokeWidth=1;fillColor=#d5e8d4;" vertex="1" parent="1">
          <mxGeometry x="174" y="481" width="81" height="23" as="geometry" />
        </mxCell>
        <mxCell id="n3pyETa5GkpWAGw-3gH3-103" value="" style="edgeStyle=orthogonalEdgeStyle;curved=1;rounded=0;orthogonalLoop=1;jettySize=auto;html=1;startArrow=classic;startFill=1;endArrow=block;endFill=0;startSize=2;endSize=2;sourcePerimeterSpacing=0;fillColor=none;" edge="1" parent="1" source="n3pyETa5GkpWAGw-3gH3-80">
          <mxGeometry relative="1" as="geometry">
            <mxPoint x="170" y="563" as="targetPoint" />
          </mxGeometry>
        </mxCell>
        <mxCell id="n3pyETa5GkpWAGw-3gH3-80" value="串口2,3" style="rounded=0;whiteSpace=wrap;html=1;fillStyle=auto;strokeColor=#82b366;strokeWidth=1;fillColor=#d5e8d4;" vertex="1" parent="1">
          <mxGeometry x="33" y="486.69" width="81" height="23" as="geometry" />
        </mxCell>
        <mxCell id="n3pyETa5GkpWAGw-3gH3-84" value="RAM" style="rounded=0;whiteSpace=wrap;html=1;fillStyle=auto;strokeColor=#82b366;strokeWidth=1;fillColor=#d5e8d4;" vertex="1" parent="1">
          <mxGeometry x="33" y="519.94" width="81" height="23" as="geometry" />
        </mxCell>
        <mxCell id="n3pyETa5GkpWAGw-3gH3-98" value="" style="edgeStyle=orthogonalEdgeStyle;curved=1;rounded=0;orthogonalLoop=1;jettySize=auto;html=1;startArrow=classic;startFill=1;endArrow=block;endFill=0;startSize=2;endSize=2;sourcePerimeterSpacing=0;fillColor=none;" edge="1" parent="1" source="n3pyETa5GkpWAGw-3gH3-85" target="n3pyETa5GkpWAGw-3gH3-50">
          <mxGeometry relative="1" as="geometry" />
        </mxCell>
        <mxCell id="n3pyETa5GkpWAGw-3gH3-85" value="ROM" style="rounded=0;whiteSpace=wrap;html=1;fillStyle=auto;strokeColor=#82b366;strokeWidth=1;fillColor=#d5e8d4;" vertex="1" parent="1">
          <mxGeometry x="33" y="552.44" width="81" height="23" as="geometry" />
        </mxCell>
        <mxCell id="n3pyETa5GkpWAGw-3gH3-99" value="" style="edgeStyle=orthogonalEdgeStyle;curved=1;rounded=0;orthogonalLoop=1;jettySize=auto;html=1;startArrow=classic;startFill=1;endArrow=block;endFill=0;startSize=2;endSize=2;sourcePerimeterSpacing=0;fillColor=none;" edge="1" parent="1" source="n3pyETa5GkpWAGw-3gH3-86" target="n3pyETa5GkpWAGw-3gH3-50">
          <mxGeometry relative="1" as="geometry" />
        </mxCell>
        <mxCell id="n3pyETa5GkpWAGw-3gH3-86" value="RTC" style="rounded=0;whiteSpace=wrap;html=1;fillStyle=auto;strokeColor=#82b366;strokeWidth=1;fillColor=#d5e8d4;" vertex="1" parent="1">
          <mxGeometry x="33" y="585.94" width="81" height="23" as="geometry" />
        </mxCell>
        <mxCell id="n3pyETa5GkpWAGw-3gH3-100" value="" style="edgeStyle=orthogonalEdgeStyle;curved=1;rounded=0;orthogonalLoop=1;jettySize=auto;html=1;startArrow=classic;startFill=1;endArrow=block;endFill=0;startSize=2;endSize=2;sourcePerimeterSpacing=0;fillColor=none;" edge="1" parent="1" source="n3pyETa5GkpWAGw-3gH3-87" target="n3pyETa5GkpWAGw-3gH3-101">
          <mxGeometry relative="1" as="geometry" />
        </mxCell>
        <mxCell id="n3pyETa5GkpWAGw-3gH3-87" value="JWD调试接口" style="rounded=0;whiteSpace=wrap;html=1;fillStyle=auto;strokeColor=#82b366;strokeWidth=1;fillColor=#d5e8d4;" vertex="1" parent="1">
          <mxGeometry x="33" y="619.94" width="81" height="23" as="geometry" />
        </mxCell>
        <mxCell id="n3pyETa5GkpWAGw-3gH3-102" value="" style="edgeStyle=orthogonalEdgeStyle;curved=1;rounded=0;orthogonalLoop=1;jettySize=auto;html=1;startArrow=classic;startFill=1;endArrow=block;endFill=0;startSize=2;endSize=2;sourcePerimeterSpacing=0;fillColor=none;" edge="1" parent="1" source="n3pyETa5GkpWAGw-3gH3-88" target="n3pyETa5GkpWAGw-3gH3-101">
          <mxGeometry relative="1" as="geometry" />
        </mxCell>
        <mxCell id="n3pyETa5GkpWAGw-3gH3-88" value="IIC接口" style="rounded=0;whiteSpace=wrap;html=1;fillStyle=auto;strokeColor=#82b366;strokeWidth=1;fillColor=#d5e8d4;" vertex="1" parent="1">
          <mxGeometry x="35" y="653.3100000000001" width="81" height="23" as="geometry" />
        </mxCell>
        <mxCell id="n3pyETa5GkpWAGw-3gH3-101" value="" style="shape=waypoint;sketch=0;size=6;pointerEvents=1;points=[];fillColor=#d5e8d4;resizable=0;rotatable=0;perimeter=centerPerimeter;snapToPoint=1;strokeColor=#82b366;rounded=0;fillStyle=auto;strokeWidth=1;" vertex="1" parent="1">
          <mxGeometry x="148" y="542.94" width="40" height="40" as="geometry" />
        </mxCell>
      </root>
    </mxGraphModel>
  </diagram>
</mxfile>
